<svg id="Layer_1" data-name="Layer 1" xmlns="http://www.w3.org/2000/svg" viewBox="0 0 1085.02 1085.02"><defs><style>.cls-1{fill-rule:evenodd;}</style></defs><path class="cls-1" d="M540,1502.51C240.38,1502.51-2.51,1259.62-2.51,960S240.38,417.49,540,417.49,1082.51,660.38,1082.51,960,839.62,1502.51,540,1502.51ZM771.52,810.32q1.83-10.11,3.54-28.53t-1.29-42.59a261.47,261.47,0,0,0-11.15-49.26l-4.24-1q-4.23-1-13.85.65a155.94,155.94,0,0,0-22.44,5.87q-12.87,4.25-33.2,16.81A350.82,350.82,0,0,0,646,744.09a317.65,317.65,0,0,0-212.18,0,330.94,330.94,0,0,0-43.09-31.64q-20.44-12.37-32.77-17a102.11,102.11,0,0,0-22.74-5.87q-10.43-1.32-13.41-.82a16.89,16.89,0,0,0-4.37,1.14,268.59,268.59,0,0,0-11.31,49.26q-3.1,24.15-1.4,42.42t3.67,28.7a132.68,132.68,0,0,0,4.51,17.94q-44.06,58.38-44.07,139.94,0,45.33,6.78,82.2t19.07,63.94a177.33,177.33,0,0,0,31.07,47.47,185.61,185.61,0,0,0,40.83,33.62q22,13.2,50.43,21.36a350,350,0,0,0,57.77,11.42,644.86,644.86,0,0,0,129.52,0,349.84,349.84,0,0,0,57.93-11.42,214.6,214.6,0,0,0,50.56-21.36,187.3,187.3,0,0,0,41.13-33.6,176.54,176.54,0,0,0,31.2-47.49q12.27-27.08,19.22-63.92t6.92-82.22q0-81.23-44.08-139.94A137.62,137.62,0,0,0,771.52,810.32ZM718.7,1132.86a79.55,79.55,0,0,1-24.15,27.65,155.72,155.72,0,0,1-30.1,17.45q-14.54,6.19-37.57,9.63a386.63,386.63,0,0,1-41.26,4.19q-18.21.72-45.91.72t-45.76-.72a387,387,0,0,1-41.11-4.19q-23-3.45-37.56-9.63a155.37,155.37,0,0,1-30.09-17.45A79.92,79.92,0,0,1,361,1132.86q-8.58-16.33-14.26-40.54t-5.64-55.1q0-52.72,33.9-95.64a69.17,69.17,0,0,1,23.58-19.82,76.1,76.1,0,0,1,30.53-7.63,246.23,246.23,0,0,1,32.61.34q15.54,1.28,38.43,3.48t39.54,2.16q16.69,0,39.55-2.16t38.45-3.48a246.19,246.19,0,0,1,32.61-.34A77,77,0,0,1,681,921.76a68.74,68.74,0,0,1,23.74,19.82q33.93,42.88,33.9,95.64,0,30.91-5.66,55.1T718.7,1132.86ZM438.3,960c-18.72,0-33.9,26-33.9,58.16s15.18,58.16,33.9,58.16,33.9-26,33.9-58.16S457,960,438.3,960Zm132.48,158.65a9.64,9.64,0,0,0-14.94,0c-6.48,7.38-11.67,11-15.84,11s-9.35-3.61-15.83-11a9.62,9.62,0,0,0-14.95,0,13.33,13.33,0,0,0,0,17.12c10.49,12,20.63,18,30.78,18s20.29-6,30.78-18A13.32,13.32,0,0,0,570.78,1118.69ZM641.71,960c-18.72,0-33.9,26-33.9,58.16s15.18,58.16,33.9,58.16,33.9-26,33.9-58.16S660.42,960,641.71,960Z" transform="translate(2.51 -417.49)"/></svg>