<?xml version="1.0" encoding="utf-8"?>
<!-- Generator: Adobe Illustrator 25.0.0, SVG Export Plug-In . SVG Version: 6.00 Build 0)  -->
<svg version="1.1" id="Layer_1" xmlns="http://www.w3.org/2000/svg" xmlns:xlink="http://www.w3.org/1999/xlink" x="0px" y="0px"
	 viewBox="0 0 512 512" style="enable-background:new 0 0 512 512;" xml:space="preserve">
<path d="M378.8,163.3c-2.9-7.4-6.3-12.7-11.9-18.3c-5.6-5.6-10.8-9-18.3-11.9c-5.6-2.2-14-4.8-29.5-5.5c-16.7-0.8-21.8-0.9-64.2-0.9
	c-42.4,0-47.4,0.2-64.2,0.9c-15.5,0.7-23.9,3.3-29.5,5.5c-7.4,2.9-12.7,6.3-18.3,11.9c-5.6,5.6-9,10.8-11.9,18.3
	c-2.2,5.6-4.8,14-5.5,29.5c-0.8,16.7-0.9,21.8-0.9,64.2s0.2,47.4,0.9,64.2c0.7,15.5,3.3,23.9,5.5,29.5c2.9,7.4,6.3,12.7,11.9,18.3
	c5.6,5.6,10.8,9,18.3,11.9c5.6,2.2,14,4.8,29.5,5.5c16.7,0.8,21.8,0.9,64.2,0.9c42.4,0,47.4-0.2,64.2-0.9
	c15.5-0.7,23.9-3.3,29.5-5.5c7.4-2.9,12.7-6.3,18.3-11.9c5.6-5.6,9-10.8,11.9-18.3c2.2-5.6,4.8-14,5.5-29.5
	c0.8-16.7,0.9-21.8,0.9-64.2c0-42.4-0.2-47.4-0.9-64.2C383.6,177.3,381,168.9,378.8,163.3z M255,338.6c-45,0-81.6-36.5-81.6-81.6
	c0-45,36.5-81.6,81.6-81.6c45,0,81.6,36.5,81.6,81.6C336.6,302,300,338.6,255,338.6z M339.8,191.3c-10.5,0-19.1-8.5-19.1-19.1
	c0-10.5,8.5-19.1,19.1-19.1c10.5,0,19.1,8.5,19.1,19.1S350.3,191.3,339.8,191.3z"/>
<path d="M450,12H60c-27.6,0-50,22.4-50,50v390c0,27.6,22.4,50,50,50h390c27.6,0,50-22.4,50-50V62C500,34.4,477.6,12,450,12z
	 M412.9,322.5c-0.8,16.9-3.5,28.4-7.4,38.6c-4.1,10.4-9.5,19.3-18.3,28.1c-8.8,8.8-17.7,14.3-28.1,18.3c-10.1,3.9-21.6,6.6-38.6,7.4
	c-16.9,0.8-22.3,1-65.5,1s-48.5-0.2-65.5-1c-16.9-0.8-28.4-3.5-38.6-7.4c-10.4-4.1-19.3-9.5-28.1-18.3c-8.8-8.8-14.3-17.7-18.3-28.1
	c-3.9-10.1-6.6-21.6-7.4-38.6c-0.8-16.9-1-22.3-1-65.5c0-43.1,0.2-48.5,1-65.5c0.8-16.9,3.5-28.4,7.4-38.6
	c4.1-10.4,9.5-19.3,18.3-28.1c8.8-8.8,17.7-14.3,28.1-18.3c10.1-3.9,21.6-6.6,38.6-7.4c16.9-0.8,22.3-1,65.5-1s48.5,0.2,65.5,1
	c16.9,0.8,28.4,3.5,38.6,7.4c10.4,4.1,19.3,9.5,28.1,18.3c8.8,8.8,14.3,17.7,18.3,28.1c3.9,10.1,6.6,21.6,7.4,38.6
	c0.8,16.9,1,22.3,1,65.5C413.8,300.1,413.6,305.5,412.9,322.5z"/>
<circle cx="255" cy="257" r="52.9"/>
</svg>
