<svg id="Layer_1" data-name="Layer 1" xmlns="http://www.w3.org/2000/svg" viewBox="0 0 490 490"><path d="M378.81,163.33a52.6,52.6,0,0,0-30.14-30.14c-5.6-2.17-14-4.76-29.49-5.47-16.75-.76-21.77-.92-64.18-.92s-47.43.16-64.18.92c-15.48.71-23.89,3.3-29.49,5.47a52.6,52.6,0,0,0-30.14,30.14c-2.17,5.6-4.76,14-5.47,29.49-.76,16.75-.92,21.77-.92,64.18s.16,47.43.92,64.18c.71,15.48,3.3,23.89,5.47,29.49a52.6,52.6,0,0,0,30.14,30.14c5.6,2.17,14,4.76,29.49,5.47,16.75.76,21.77.92,64.18.92s47.43-.16,64.18-.92c15.48-.71,23.89-3.3,29.49-5.47a52.6,52.6,0,0,0,30.14-30.14c2.17-5.6,4.76-14,5.47-29.49.76-16.75.92-21.77.92-64.18s-.16-47.43-.92-64.18C383.57,177.34,381,168.93,378.81,163.33ZM255,338.56A81.56,81.56,0,1,1,336.56,257,81.57,81.57,0,0,1,255,338.56Zm84.78-147.28a19.06,19.06,0,1,1,19.06-19.06A19.06,19.06,0,0,1,339.78,191.28Z" transform="translate(-10 -12)"/><path d="M450,12H60A50,50,0,0,0,10,62V452a50,50,0,0,0,50,50H450a50,50,0,0,0,50-50V62A50,50,0,0,0,450,12ZM412.86,322.48c-.77,16.91-3.45,28.45-7.38,38.55A81.23,81.23,0,0,1,359,407.48c-10.1,3.93-21.64,6.61-38.55,7.38s-22.35,1-65.48,1-48.54-.18-65.48-1-28.45-3.45-38.55-7.38A81.23,81.23,0,0,1,104.52,361c-3.93-10.1-6.61-21.64-7.39-38.55s-.95-22.35-.95-65.48.18-48.54.95-65.48,3.46-28.45,7.39-38.55A81.23,81.23,0,0,1,151,106.52c10.1-3.93,21.64-6.61,38.55-7.38s22.35-1,65.48-1,48.54.18,65.48,1,28.45,3.45,38.55,7.38A81.23,81.23,0,0,1,405.48,153c3.93,10.1,6.61,21.64,7.38,38.55s1,22.35,1,65.48S413.64,305.54,412.86,322.48Z" transform="translate(-10 -12)"/><circle cx="245" cy="245" r="52.94"/></svg>