<?xml version="1.0" encoding="utf-8"?>
<!-- Generator: Adobe Illustrator 25.0.0, SVG Export Plug-In . SVG Version: 6.00 Build 0)  -->
<svg version="1.1" id="Layer_1" xmlns="http://www.w3.org/2000/svg" xmlns:xlink="http://www.w3.org/1999/xlink" x="0px" y="0px"
	 viewBox="0 0 512 512" style="enable-background:new 0 0 512 512;" xml:space="preserve">
<polygon points="177.4,242.8 166.9,242.8 158.7,265.5 148.2,230.3 138.8,234.3 153.5,280 162.9,283.9 171.6,252.8 181.1,283.9 
	190.3,280 205.4,234.3 196.6,230.3 185.6,265.5 "/>
<path d="M248.2,178.5v-55.3v-0.7c-18.1,15.4-32.8,34.5-42.9,56H248.2z"/>
<path d="M248.2,190.9H199c-4.1,10.4-7.2,21.2-9.2,32.2h58.4V190.9z"/>
<path d="M184.8,190.1h-49.6c-5.5,10.4-9.8,21.5-12.7,33h53.2C177.8,211.9,180.8,200.8,184.8,190.1z"/>
<path d="M228.1,122.9c-26.6,5.2-51,18.4-70,37.8v-0.4c-5.1,5.5-9.6,11.5-13.6,17.9h46.8C200,157.6,212.5,138.8,228.1,122.9z"/>
<polygon points="337.9,252.8 347.1,283.9 357.1,280.2 371.8,234.5 362.4,230.5 351.9,265.7 343.6,243 333.1,243 325,265.7 
	313.9,230.5 304.6,234.5 319.7,280.2 328.7,283.9 "/>
<path d="M366.3,176.9c-4.3-5.9-9.1-11.5-14.4-16.6c-18.9-19.7-43.3-33.2-70-38.7c16,16,28.9,34.7,38.1,55.3H366.3z"/>
<path d="M261.8,323.9h48.4c4.7-10.3,8.2-21,10.5-32.1h-58.9V323.9z"/>
<path d="M261.8,122v55.3h43.5C294.8,156,280,137.2,261.8,122z"/>
<path d="M310.3,190.1h-48.4v33h58.9C318.5,211.8,315,200.7,310.3,190.1z"/>
<path d="M248.2,392.2v-55.3h-43.5C215.2,358.2,230,377,248.2,392.2z"/>
<path d="M334.2,292c-2,10.9-4.9,21.6-8.7,32.1h49.4l-0.2-0.2c5.5-10.1,9.8-20.8,12.7-31.9H334.2z"/>
<path d="M175.8,291.8h-53.2c2.9,11.2,7.2,21.9,12.7,32.1h49.6C181,313.4,177.9,302.7,175.8,291.8z"/>
<path d="M450,12H60c-27.6,0-50,22.4-50,50v390c0,27.6,22.4,50,50,50h390c27.6,0,50-22.4,50-50V62C500,34.4,477.6,12,450,12z
	 M402.4,318.7c-8.3,19-20.2,36.2-35,50.7c-14.6,14.5-31.7,26.2-50.7,34.3c-39.5,16.5-83.9,16.5-123.4,0
	c-18.9-8.1-36.1-19.7-50.7-34.3c-14.8-14.5-26.7-31.7-35-50.7c-16.5-39.5-16.5-83.9,0-123.4c8.3-19,20.2-36.2,35-50.7
	c14.5-14.5,31.7-26.1,50.7-34.1c19.5-8.4,40.5-12.6,61.7-12.5c21.2-0.1,42.2,4.1,61.7,12.5c18.9,8,36.1,19.5,50.7,34.1
	c14.8,14.5,26.7,31.7,35,50.7C418.8,234.8,418.8,279.2,402.4,318.7z"/>
<path d="M281.9,390.7c26.5-4.9,51-17.7,70-36.8c5.1-5.7,9.7-11.8,13.6-18.4H320C310.9,356.1,297.9,374.9,281.9,390.7z"/>
<path d="M325.6,190.9c3.8,10.5,6.7,21.3,8.7,32.2h53.2c-2.9-11.4-7.1-22.4-12.5-32.8L325.6,190.9z"/>
<path d="M199.7,324.6h48.4l0.7-32.1h-58.4C192.6,303.5,195.6,314.2,199.7,324.6z"/>
<path d="M143.7,337.1c4.2,6.2,9,11.9,14.4,17.1v-0.4c18.8,19.7,43.3,33.2,70,38.5c-16.1-15.9-29-34.6-38.1-55.3H143.7z"/>
<path d="M261.8,336.8V392c18.1-15.2,32.9-34.1,43.5-55.3H261.8z"/>
<polygon points="273.4,280 288.7,234.3 278.9,230.3 268.4,265.5 260.3,242.8 249.7,242.8 241.6,265.5 230.5,230.3 221.1,234.3 
	236.4,280 245.6,283.9 255,252.8 264,283.9 "/>
</svg>
